<?xml version="1.0" encoding="UTF-8"?>
<svg xmlns="http://www.w3.org/2000/svg" xmlns:xlink="http://www.w3.org/1999/xlink" viewBox="0 0 4997.33 2000">
  <defs>
    <style>
      .cls-1 {
        fill: #ff003c;
      }

      .cls-2 {
        fill: none;
      }

      .cls-3 {
        fill: #24262a;
      }

      .cls-4 {
        clip-path: url(#clippath-1);
      }

      .cls-5 {
        fill: #fff2c9;
      }

      .cls-6 {
        clip-path: url(#clippath);
      }
    </style>
    <clipPath id="clippath">
      <polygon class="cls-2" points="2014.62 580.08 2184.57 750.04 2281.62 585.67 2760.95 591 3279.45 580.11 3372.38 673.04 3372.38 1506.33 2094.56 1537.34 1717.9 1160.68 1743.62 593.44 2014.62 580.08"/>
    </clipPath>
    <clipPath id="clippath-1">
      <polygon class="cls-2" points="1717.9 1160.68 2094.56 1537.34 3372.38 1506.33 3372.38 1177 1717.9 1160.68"/>
    </clipPath>
  </defs>
  <g id="Layer_5" data-name="Layer 5">
    <rect class="cls-5" x="1654.91" y="516.6" width="1687.52" height="966.8" transform="translate(4997.3333 2000) rotate(-180)"/>
    <rect class="cls-5" x="1622.95" y="484.64" width="1751.44" height="1030.72" transform="translate(4997.3333 2000) rotate(-180)"/>
  </g>
  <g id="Layer_6" data-name="Layer 6">
    <g class="cls-6">
      <rect class="cls-3" x="1654.9" y="516.87" width="1687.52" height="966.8"/>
    </g>
  </g>
  <g id="Layer_2" data-name="Layer 2">
    <g>
      <g>
        <polygon class="cls-1" points="2347.93 1144.65 2347.93 845.35 2221.83 1069.62 2076.36 1069.62 1941.92 838.12 1941.92 1144.65 1733.9 1144.65 1733.9 596.04 2005.79 596.04 2148.02 825.9 2283.84 596.04 2555.95 596.04 2555.95 1144.65 2347.93 1144.65"/>
        <path class="cls-3" d="M2539.95,612.04v516.6h-176.02v-344.4l-151.46,269.37h-126.9l-159.65-274.91v349.94h-176.02v-516.6h246.97l151.46,244.77,144.64-244.77h246.97M2571.95,580.04h-297.23l-9.29,15.72-117.72,199.22-123.62-199.78-9.38-15.16h-296.81v580.6h240.02v-263.11l99.98,172.15,9.25,15.93h164.04l9.17-16.32,91.57-162.85v254.2h240.02v-580.6h0Z"/>
      </g>
      <g>
        <polygon class="cls-1" points="2811.85 1144.65 2811.85 760.88 2571.7 760.88 2571.7 596.04 3263.43 596.04 3263.43 760.88 3023.96 760.88 3023.96 1144.65 2811.85 1144.65"/>
        <path class="cls-3" d="M3247.43,612.04v132.84h-239.47v383.76h-180.11v-383.76h-240.15v-132.84h659.74M3279.43,580.04h-723.74v196.84h240.15v383.76h244.11v-383.76h239.47v-196.84h0Z"/>
      </g>
    </g>
  </g>
  <g id="Layer_4" data-name="Layer 4">
    <g>
      <g>
        <rect class="cls-5" x="1743.34" y="1249.02" width="11.67" height="146.22"/>
        <polygon class="cls-3" points="2010.9 1224.02 1718.34 1224.02 1718.34 1420.24 2010.9 1420.24 2010.9 1371.18 1780.01 1371.18 1780.01 1341.75 1989.88 1341.75 1989.88 1298.3 1780.01 1298.3 1780.01 1273.07 2010.9 1273.07 2010.9 1224.02 2010.9 1224.02"/>
      </g>
      <path class="cls-3" d="M2074.34,1224.02h218.99c64.71,0,106.28,38.31,106.28,98.11s-41.58,98.11-106.28,98.11h-218.99v-196.22ZM2293.33,1369.78c26.63,0,44.38-19.39,44.38-47.89s-17.75-47.42-44.38-47.42h-157.32v95.31h157.32Z"/>
      <path class="cls-3" d="M2463.04,1224.02h61.67v196.22h-61.67v-196.22Z"/>
      <path class="cls-3" d="M2720.64,1274.48h-132.5v-50.46h326.67v50.46h-132.5v145.76h-61.67v-145.76Z"/>
      <path class="cls-3" d="M3127.45,1221.22c126.68,0,148.27,24.29,148.27,68.91h-62.6c0-16.12.48-24.06-88.47-24.06-78.13,0-81.93,7.47-81.93,18.45,0,11.91,62.54,14.25,81.93,15.65,45.08,3.5,154.35,2.34,154.35,54.19,0,46.02-3.72,68.68-149.44,68.68-125.32,0-151.31-24.99-151.31-69.84h62.84c0,16.59-.73,24.99,92.44,24.99,83.31,0,83.33-5.37,83.33-16.12,0-14.25-67.45-16.35-93.14-17.99-40.88-2.57-142.9-3.97-142.9-58.87,0-40.65,7.85-64,146.64-64Z"/>
    </g>
    <g class="cls-4">
      <g>
        <path class="cls-5" d="M1718.34,1224.02h292.56v49.05h-230.89v25.23h209.87v43.45h-209.87v29.43h230.89v49.05h-292.56v-196.22Z"/>
        <path class="cls-5" d="M2074.33,1224.02h218.99c64.71,0,106.28,38.31,106.28,98.11s-41.58,98.11-106.28,98.11h-218.99v-196.22ZM2293.32,1369.78c26.63,0,44.38-19.39,44.38-47.89s-17.75-47.42-44.38-47.42h-157.32v95.31h157.32Z"/>
        <path class="cls-5" d="M2463.04,1224.02h61.67v196.22h-61.67v-196.22Z"/>
        <path class="cls-5" d="M2720.64,1274.47h-132.5v-50.46h326.67v50.46h-132.5v145.76h-61.67v-145.76Z"/>
        <path class="cls-5" d="M3127.44,1221.22c126.68,0,148.27,24.29,148.27,68.91h-62.6c0-16.12.48-24.06-88.47-24.06-78.13,0-81.93,7.47-81.93,18.45,0,11.91,62.54,14.25,81.93,15.65,45.08,3.5,154.35,2.34,154.35,54.19,0,46.02-3.72,68.68-149.44,68.68-125.32,0-151.31-24.99-151.31-69.84h62.84c0,16.59-.73,24.99,92.44,24.99,83.31,0,83.33-5.37,83.33-16.12,0-14.25-67.45-16.35-93.14-17.99-40.88-2.57-142.9-3.97-142.9-58.87,0-40.65,7.85-64,146.64-64Z"/>
      </g>
    </g>
  </g>
</svg>